:SAMPLES-PER-SECOND 30
:FULLY-SPECIFIED
:DEGREES
728
root  -42.5176 37.4615 28.9772 175.986 -7.88587 176.974
RightUpLeg  -2.64006 -1.37685 -27.0333
RightLeg  14.2403 4.03641 -2.33319
RightFoot  -2.22189 -0.657953 8.34561
RightToes  -1.33073e-015 0 -3.6325e-017
Spine  12.8574 -2.43881 2.28608
Spine1  7.63658 -1.63448 -2.81696
HEad  37.6401 -30.7652 175.254
LeftShoulder1  -0.0991365 3.79555 -27.8546
LeftArm  -2.75166 0.387652 -41.8664
LeftForeArm  64.7159 -78.9522 -85.3443
LeftHand  -0.0875551 2.45137 3.01679
RightShoulder  -0.561635 -5.25834 25.2204
RightArm  -17.1485 -25.206 28.8469
RightForeArm  103.086 72.9276 137.999
RightHand  -0.180841 3.67498 -2.56721
LeftUpLeg  -15.89 15.305 13.8203
LeftLeg  29.0514 -2.33228 -1.04891
LeftFoot  -5.12035 0.626881 -10.9374
LeftToes  -1.93726e-010 2.42366e-011 2.16268e-013
729
root  -43.7729 37.6124 29.0344 176.081 -7.86888 177.17
RightUpLeg  -3.01007 2.96265 -26.6251
RightLeg  14.6227 0.842983 -3.79911
RightFoot  -1.01808 0.112153 -1.67508
RightToes  -1.33073e-015 0 -3.6325e-017
Spine  13.0776 -1.98502 2.03667
Spine1  7.74184 -1.05751 -3.09369
HEad  37.9049 -30.4272 175.073
LeftShoulder1  -0.103123 3.81007 -27.4845
LeftArm  -1.62632 -1.64266 -42.0197
LeftForeArm  61.4268 -78.8784 -82.1772
LeftHand  -0.0967761 2.40032 3.3046
RightShoulder  -0.685026 -5.58913 26.1812
RightArm  -18.0736 -26.4789 29.1905
RightForeArm  102.165 73.4218 136.458
RightHand  -0.155168 3.5781 -2.26836
LeftUpLeg  -16.6015 14.8598 11.8481
LeftLeg  30.7558 -1.59025 -0.671648
LeftFoot  -6.6946 0.411322 -9.1461
LeftToes  -1.93726e-010 2.42366e-011 2.16268e-013
730
root  -44.7609 37.769 29.0816 176.391 -7.49075 177.723
RightUpLeg  -4.96607 8.63459 -25.8135
RightLeg  17.4987 -1.9731 -2.47442
RightFoot  -3.47738 0.400902 -5.59782
RightToes  -1.33073e-015 0 -3.6325e-017
Spine  13.3451 -1.52767 1.61518
Spine1  7.6345 -0.621359 -3.10448
HEad  38.0086 -30.164 174.514
LeftShoulder1  -0.132098 3.89619 -27.4677
LeftArm  -0.838766 -2.78112 -41.5638
LeftForeArm  56.4083 -78.7043 -77.7938
LeftHand  -0.11914 2.27242 4.03845
RightShoulder  -0.706779 -5.62834 26.6166
RightArm  -18.2777 -26.2789 30.5441
RightForeArm  96.9886 74.9335 130.557
RightHand  -0.138209 4.032 -1.97647
LeftUpLeg  -17.2645 13.9095 10.6305
LeftLeg  31.7993 -0.190344 0.226994
LeftFoot  -7.7133 0.286363 -7.59548
LeftToes  -1.93726e-010 2.42366e-011 2.16268e-013
731
root  -45.4659 37.9736 29.1143 176.52 -7.10248 178.387
RightUpLeg  -6.69796 7.39178 -23.9378
RightLeg  20.8321 -1.68966 -0.750925
RightFoot  -6.64132 -0.0778052 0.435176
RightToes  -1.33073e-015 0 -3.6325e-017
Spine  13.6624 -1.42436 1.18674
Spine1  8.14493 -0.270488 -4.75415
HEad  38.6386 -30.9231 174.023
LeftShoulder1  -0.117036 3.85633 -27.0091
LeftArm  -1.78246 -2.8889 -41.5401
LeftForeArm  54.3252 -78.6009 -74.8461
LeftHand  -0.0753822 2.93028 2.93761
RightShoulder  -0.615599 -5.34045 26.7743
RightArm  -17.271 -24.857 32.2507
RightForeArm  87.8533 76.7152 120.468
RightHand  -0.154782 3.54056 -2.26808
LeftUpLeg  -17.2614 12.8078 10.0258
LeftLeg  31.7606 1.30016 1.2198
LeftFoot  -8.05823 0.236787 -6.59169
LeftToes  -1.93726e-010 2.42366e-011 2.16268e-013
732
root  -46.0944 38.3925 29.1191 176.647 -6.51875 179.129
RightUpLeg  -8.82141 2.79051 -20.2757
RightLeg  25.1719 -1.00295 -0.76465
RightFoot  -7.77626 -0.0580853 0.151009
RightToes  -1.33073e-015 0 -3.6325e-017
Spine  13.9723 -0.98023 0.165066
Spine1  8.26851 -0.080648 -4.09422
HEad  39.0443 -31.8539 173.308
LeftShoulder1  -0.109752 3.83063 -27.3074
LeftArm  -2.81602 -2.51959 -41.1205
LeftForeArm  52.8648 -78.5039 -72.4213
LeftHand  -0.0678764 2.88141 2.49277
RightShoulder  -0.534852 -5.12655 26.1836
RightArm  -14.9993 -23.2334 33.4158
RightForeArm  76.5874 77.9083 108.607
RightHand  -0.169835 4.32924 -2.29405
LeftUpLeg  -15.9883 12.6106 9.69891
LeftLeg  29.4525 2.21277 1.70122
LeftFoot  -7.69848 0.246582 -6.29741
LeftToes  -1.93726e-010 2.42366e-011 2.16268e-013
733
root  -46.6539 38.8438 29.0988 177.135 -6.27523 179.77
RightUpLeg  -11.1974 -1.76004 -16.0357
RightLeg  29.2044 -2.99552 -2.04027
RightFoot  -8.34798 -0.0476646 -0.335274
RightToes  -1.33073e-015 0 -3.6325e-017
Spine  14.0079 -0.739763 -0.333874
Spine1  8.20489 0.174969 -4.18756
HEad  39.4711 -32.0427 173.904
LeftShoulder1  -0.0482753 3.65125 -26.6172
LeftArm  -3.87425 -1.97577 -40.8759
LeftForeArm  52.1832 -78.443 -70.9769
LeftHand  -0.0500529 3.015 1.7078
RightShoulder  -0.515427 -5.05263 26.4629
RightArm  -12.9047 -21.8128 33.9392
RightForeArm  65.5137 78.452 97.2987
RightHand  -0.249277 4.88983 -3.12047
LeftUpLeg  -14.7893 12.5126 9.26492
LeftLeg  26.3958 2.88257 1.90345
LeftFoot  -7.09826 0.267975 -6.09222
LeftToes  -1.93726e-010 2.42366e-011 2.16268e-013
734
root  -47.2054 39.2734 29.0429 177.667 -6.5975 -179.518
RightUpLeg  -12.839 -6.25234 -11.3655
RightLeg  30.9625 -4.34759 -3.04194
RightFoot  -8.79647 -0.0535827 -0.261
RightToes  -1.33073e-015 0 -3.6325e-017
Spine  13.9748 -0.785551 -0.159804
Spine1  8.17807 0.205514 -4.29469
HEad  40.4135 -32.0882 173.33
LeftShoulder1  -0.0603665 3.68737 -26.6664
LeftArm  -4.38648 -2.19206 -39.9753
LeftForeArm  49.9101 -78.2739 -68.6302
LeftHand  -0.0463057 3.20627 1.59335
RightShoulder  -0.490653 -4.99801 26.0055
RightArm  -11.3241 -21.5135 34.7606
RightForeArm  60.4101 78.5462 91.8305
RightHand  -0.217758 5.27627 -2.67622
LeftUpLeg  -13.6439 12.1562 8.88541
LeftLeg  23.125 3.22319 1.84468
LeftFoot  -6.54868 0.289452 -5.96681
LeftToes  -1.93726e-010 2.42366e-011 2.16268e-013
735
root  -47.7065 39.6134 28.9736 178.267 -6.81975 -179.295
RightUpLeg  -14.3331 -9.13393 -7.15458
RightLeg  30.8674 -4.35138 -3.03878
RightFoot  -9.28002 -0.0654195 0.133479
RightToes  -1.33073e-015 0 -3.6325e-017
Spine  14.2036 -0.723153 -0.30042
Spine1  7.75557 0.346053 -4.60555
HEad  41.208 -31.8264 173.239
LeftShoulder1  -0.0426464 3.63421 -26.4977
LeftArm  -4.70818 -2.06761 -39.5387
LeftForeArm  47.0679 -78.0323 -65.7636
LeftHand  -0.0550892 3.1265 2.03561
RightShoulder  -0.469115 -4.92698 26.0945
RightArm  -9.90731 -21.5804 34.9467
RightForeArm  58.5135 78.5443 90.0864
RightHand  -0.258591 5.64815 -3.03988
LeftUpLeg  -12.4981 12.0409 8.15085
LeftLeg  20.0275 3.62702 1.79952
LeftFoot  -6.57282 0.321774 -6.77662
LeftToes  -1.93726e-010 2.42366e-011 2.16268e-013
736
root  -48.1381 39.8621 28.8978 178.844 -6.97691 -179.431
RightUpLeg  -15.49 -8.96802 -3.51601
RightLeg  29.0077 -4.45472 -2.90069
RightFoot  -9.86799 -0.0698583 0.205562
RightToes  -1.33073e-015 0 -3.6325e-017
Spine  14.5161 -0.466119 -1.25575
Spine1  7.42732 0.336831 -3.85653
HEad  42.562 -31.8162 172.48
LeftShoulder1  -0.0561548 3.67243 -27.1046
LeftArm  -5.51081 -1.89977 -38.8566
LeftForeArm  44.9649 -77.802 -63.2279
LeftHand  -0.0439093 3.20611 1.45115
RightShoulder  -0.39815 -4.71917 25.7991
RightArm  -8.83798 -21.7623 35.1618
RightForeArm  58.8208 78.5397 90.4963
RightHand  -0.304753 6.36229 -3.34483
LeftUpLeg  -11.5876 12.4722 7.28042
LeftLeg  17.6331 3.53835 1.49502
LeftFoot  -7.12664 0.293849 -6.8242
LeftToes  -1.93726e-010 2.42366e-011 2.16268e-013
737
root  -48.568 40.0328 28.7488 179.576 -7.78348 -179.985
RightUpLeg  -16.1662 -7.12442 -1.05178
RightLeg  25.639 -3.45963 -2.04261
RightFoot  -10.6731 -0.0749536 0.61071
RightToes  -1.33073e-015 0 -3.6325e-017
Spine  13.9474 -0.653866 -1.80561
Spine1  8.12012 0.147013 -3.94097
HEad  44.2189 -32.2472 171.378
LeftShoulder1  -0.0713385 3.71543 -27.5344
LeftArm  -6.1813 -1.8267 -38.5339
LeftForeArm  41.3197 -77.3385 -59.031
LeftHand  -0.0301974 3.23944 0.715323
RightShoulder  -0.399602 -4.72938 25.646
RightArm  -8.19433 -21.4057 35.9926
RightForeArm  59.6498 78.5777 90.3262
RightHand  -0.347646 6.23875 -3.79197
LeftUpLeg  -10.9114 11.6824 5.9766
LeftLeg  15.4344 3.90378 1.15064
LeftFoot  -7.55251 0.289096 -7.36474
LeftToes  -1.93726e-010 2.42366e-011 2.16268e-013
738
root  -48.9807 40.091 28.5391 -179.71 -9.21166 179.114
RightUpLeg  -16.2942 -4.14784 0.106361
RightLeg  21.6854 -0.60531 -0.488123
RightFoot  -11.8798 -0.070001 2.27744
RightToes  -1.33073e-015 0 -3.6325e-017
Spine  13.0655 -1.05217 -2.5617
Spine1  8.8844 -0.250651 -4.13004
HEad  44.1759 -32.3107 170.608
LeftShoulder1  -0.0587007 3.67754 -27.6606
LeftArm  -6.39145 -1.6917 -38.0862
LeftForeArm  36.066 -76.5401 -53.5828
LeftHand  -0.0333351 2.99038 0.855098
RightShoulder  -0.418792 -4.7775 25.9426
RightArm  -7.82862 -21.1983 36.5599
RightForeArm  61.367 78.6414 90.3542
RightHand  -0.294712 5.62869 -3.46277
LeftUpLeg  -10.6709 10.8322 4.37554
LeftLeg  14.2149 4.10163 0.739016
LeftFoot  -8.21476 0.265267 -7.93034
LeftToes  -1.93726e-010 2.42366e-011 2.16268e-013
739
root  -49.4441 40.0572 28.3032 -179.039 -11.0189 178.111
RightUpLeg  -16.1611 -0.943534 0.181205
RightLeg  18.3107 3.95454 1.22451
RightFoot  -11.7016 -0.0519116 3.12878
RightToes  -1.33073e-015 0 -3.6325e-017
Spine  12.3146 -1.56881 -2.14569
Spine1  9.40969 -0.446088 -5.14761
HEad  43.9491 -31.7823 169.936
LeftShoulder1  -0.0061638 3.5215 -28.1363
LeftArm  -6.28978 -2.04891 -37.5048
LeftForeArm  29.5286 -75.2838 -47.2611
LeftHand  -0.0374934 2.79434 1.0301
RightShoulder  -0.448328 -4.85785 26.2257
RightArm  -7.66886 -21.7287 36.7277
RightForeArm  64.8614 78.6221 93.7664
RightHand  -0.414597 4.78297 -5.02947
LeftUpLeg  -10.8979 9.81966 2.55767
LeftLeg  14.1775 3.80797 0.483651
LeftFoot  -9.18384 0.212177 -8.31847
LeftToes  -1.93726e-010 2.42366e-011 2.16268e-013
